<svg xmlns="http://www.w3.org/2000/svg" version="1.1" xmlns:xlink="http://www.w3.org/1999/xlink" xmlns:svgjs="http://svgjs.dev/svgjs" width="2000" height="717" viewBox="0 0 2000 717"><g transform="matrix(1,0,0,1,-1.2121212121212466,-1.716614052702198)"><svg viewBox="0 0 396 142" data-background-color="#1b1f3b" preserveAspectRatio="xMidYMid meet" height="717" width="2000" xmlns="http://www.w3.org/2000/svg" xmlns:xlink="http://www.w3.org/1999/xlink"><g id="tight-bounds" transform="matrix(1,0,0,1,0.2400000000000091,0.33997098393822967)"><svg viewBox="0 0 395.52 141.32005803212354" height="141.32005803212354" width="395.52"><g><svg viewBox="0 0 684.103112137303 244.43135999999998" height="141.32005803212354" width="395.52"><g transform="matrix(1,0,0,1,0,28.70394619964975)"><svg viewBox="0 0 395.52 187.02346760070049" height="187.02346760070049" width="395.52"><g id="textblocktransform"><svg viewBox="0 0 395.52 187.02346760070049" height="187.02346760070049" width="395.52" id="textblock"><g><svg viewBox="0 0 395.52 187.02346760070049" height="187.02346760070049" width="395.52"><g transform="matrix(1,0,0,1,0,0)"><svg width="395.52" viewBox="1.95 -31 85.64999999999999 40.5" height="187.02346760070049" data-palette-color="#ffffff"><path d="M18.3-17.2L18.3-17.2Q17.4-14.05 16.38-10.9 15.35-7.75 14.4-5 13.45-2.25 12.65-0.25L12.65-0.25Q12.25 0 11.75 0.15 11.25 0.3 10.4 0.3L10.4 0.3Q9.6 0.3 8.93 0.03 8.25-0.25 8-0.85L8-0.85Q7.5-1.85 6.88-3.75 6.25-5.65 5.58-8.1 4.9-10.55 4.2-13.18 3.5-15.8 2.93-18.25 2.35-20.7 1.95-22.6L1.95-22.6Q2.3-22.95 2.83-23.25 3.35-23.55 4.1-23.55L4.1-23.55Q5.05-23.55 5.53-23.03 6-22.5 6.2-21.35L6.2-21.35Q6.65-19.25 7.23-16.6 7.8-13.95 8.43-11.35 9.05-8.75 9.58-6.68 10.1-4.6 10.35-3.6L10.35-3.6 10.55-3.6Q10.95-4.8 11.8-7.53 12.65-10.25 13.83-13.75 15-17.25 16.2-20.85L16.2-20.85Q16.6-21.1 17.15-21.23 17.7-21.35 18.35-21.35L18.35-21.35Q19.25-21.35 19.85-21.03 20.45-20.7 20.65-20.05L20.65-20.05Q21.85-16.6 22.9-13.28 23.95-9.95 24.75-7.38 25.55-4.8 25.9-3.55L25.9-3.55 26.15-3.55Q27.3-8 28.65-13.1 30-18.2 30.85-23.1L30.85-23.1Q31.55-23.55 32.55-23.55L32.55-23.55Q33.4-23.55 33.9-23.15 34.4-22.75 34.4-21.9L34.4-21.9Q34.4-21.35 34.08-19.8 33.75-18.25 33.2-16.15 32.65-14.05 31.98-11.68 31.3-9.3 30.6-7.08 29.9-4.85 29.28-3.05 28.65-1.25 28.2-0.25L28.2-0.25Q27.95-0.05 27.38 0.13 26.8 0.3 26.05 0.3L26.05 0.3Q24 0.3 23.65-0.65L23.65-0.65Q22.95-2.45 22.05-5.13 21.15-7.8 20.2-10.93 19.25-14.05 18.3-17.2ZM40.55-2.45L40.55-2.45Q40.55-3.05 40.87-3.6 41.2-4.15 41.7-4.4L41.7-4.4Q42.65-3.85 44.17-3.33 45.7-2.8 47.8-2.8L47.8-2.8Q50.4-2.8 52.55-3.9 54.7-5 56-7.53 57.3-10.05 57.3-14.2L57.3-14.2Q56.85-13.7 55.82-12.98 54.8-12.25 53.25-11.7 51.7-11.15 49.65-11.15L49.65-11.15Q46.85-11.15 44.4-12.13 41.95-13.1 40.47-15.25 39-17.4 39-20.9L39-20.9Q39-24.05 40.4-26.33 41.8-28.6 44.2-29.8 46.6-31 49.55-31L49.55-31Q53-31 55.65-29.43 58.3-27.85 59.82-24.58 61.35-21.3 61.35-16.15L61.35-16.15Q61.35-10.05 59.65-6.35 57.95-2.65 54.92-1 51.9 0.65 47.85 0.65L47.85 0.65Q44.85 0.65 42.7-0.15 40.55-0.95 40.55-2.45ZM50.2-14.5L50.2-14.5Q52.75-14.5 54.72-15.78 56.7-17.05 57.35-18.6L57.35-18.6 57.3-18.05Q57.3-22.5 55.27-25.08 53.25-27.65 49.55-27.65L49.55-27.65Q46.8-27.65 44.92-25.88 43.05-24.1 43.05-21L43.05-21Q43.05-17.55 45.15-16.03 47.25-14.5 50.2-14.5ZM87.6-19.1L87.6-3.15 83.6-3.2 83.6-19.05Q82.75-19.6 81.47-20.03 80.2-20.45 78.45-20.45L78.45-20.45Q76.3-20.45 74.52-19.55 72.75-18.65 71.67-16.65 70.6-14.65 70.6-11.4L70.6-11.4Q70.6-6.8 72.75-4.73 74.9-2.65 78.4-2.65L78.4-2.65Q80.2-2.65 81.7-3.28 83.2-3.9 84.05-4.75L84.05-4.75 84.05-1.1Q83.05-0.4 81.52 0.13 80 0.65 77.8 0.65L77.8 0.65Q74.55 0.65 71.97-0.6 69.4-1.85 67.95-4.53 66.5-7.2 66.5-11.4L66.5-11.4Q66.5-15.6 68.07-18.35 69.65-21.1 72.32-22.43 75-23.75 78.35-23.75L78.35-23.75Q80.75-23.75 82.7-23.15 84.65-22.55 85.95-21.75L85.95-21.75Q86.7-21.3 87.15-20.65 87.6-20 87.6-19.1L87.6-19.1ZM83.6 7.65L83.6-3.9 87.6-4 87.6 9.15Q87.35 9.25 86.82 9.38 86.3 9.5 85.75 9.5L85.75 9.5Q84.65 9.5 84.12 9.05 83.6 8.6 83.6 7.65L83.6 7.65Z" opacity="1" transform="matrix(1,0,0,1,0,0)" fill="#ffffff" class="wordmark-text-0" data-fill-palette-color="primary" id="text-0"></path></svg></g></svg></g></svg></g></svg></g><g transform="matrix(1,0,0,1,439.671752137303,0)"><svg viewBox="0 0 244.43135999999998 244.43135999999998" height="244.43135999999998" width="244.43135999999998"><g data-palette-color="#ffffff"><rect width="66.8112384" height="244.43135999999998" fill="#ffffff" stroke="transparent" data-fill-palette-color="accent" x="0" fill-opacity="1"></rect><rect width="66.8112384" height="244.43135999999998" fill="#ffffff" stroke="transparent" data-fill-palette-color="accent" x="81.47711999999999" fill-opacity="0.75"></rect><rect width="66.8112384" height="244.43135999999998" fill="#ffffff" stroke="transparent" data-fill-palette-color="accent" x="162.95423999999997" fill-opacity="0.5"></rect></g></svg></g></svg></g><defs></defs></svg><rect width="395.52" height="141.32005803212354" fill="none" stroke="none" visibility="hidden"></rect></g></svg></g></svg>